<svg width="200" height="200" xmlns="http://www.w3.org/2000/svg">
  <rect width="200" height="200" fill="white" />
  <rect x="20" y="20" width="160" height="160" fill="white" stroke="#4f46e5" stroke-width="2" />
  
  <!-- QR Code pattern (simplified) -->
  <rect x="40" y="40" width="20" height="20" fill="#4f46e5" />
  <rect x="40" y="70" width="20" height="20" fill="#4f46e5" />
  <rect x="40" y="100" width="20" height="20" fill="#4f46e5" />
  <rect x="40" y="130" width="20" height="20" fill="#4f46e5" />
  
  <rect x="70" y="40" width="20" height="20" fill="#4f46e5" />
  <rect x="70" y="100" width="20" height="20" fill="#4f46e5" />
  <rect x="70" y="130" width="20" height="20" fill="#4f46e5" />
  
  <rect x="100" y="40" width="20" height="20" fill="#4f46e5" />
  <rect x="100" y="70" width="20" height="20" fill="#4f46e5" />
  <rect x="100" y="130" width="20" height="20" fill="#4f46e5" />
  
  <rect x="130" y="40" width="20" height="20" fill="#4f46e5" />
  <rect x="130" y="70" width="20" height="20" fill="#4f46e5" />
  <rect x="130" y="100" width="20" height="20" fill="#4f46e5" />
  <rect x="130" y="130" width="20" height="20" fill="#4f46e5" />
</svg> 